<?xml version="1.0" encoding="UTF-8"?>
<!DOCTYPE svg PUBLIC "-//W3C//DTD SVG 1.1//EN" "http://www.w3.org/Graphics/SVG/1.1/DTD/svg11.dtd">
<!-- Creator: CorelDRAW X7 -->
<svg xmlns="http://www.w3.org/2000/svg" xml:space="preserve" width="710px" height="710px" version="1.1" style="shape-rendering:geometricPrecision; text-rendering:geometricPrecision; image-rendering:optimizeQuality; fill-rule:evenodd; clip-rule:evenodd"
viewBox="0 0 1121 1121"
 xmlns:xlink="http://www.w3.org/1999/xlink">
 <defs>
  <style type="text/css">
   <![CDATA[
    .fil156 {fill:#009CB4}
    .fil157 {fill:#009DB5}
    .fil154 {fill:#019AB2}
    .fil155 {fill:#019BB3}
    .fil152 {fill:#0298B0}
    .fil153 {fill:#0299B1}
    .fil150 {fill:#0396AE}
    .fil151 {fill:#0397AF}
    .fil147 {fill:#0493AB}
    .fil148 {fill:#0494AC}
    .fil149 {fill:#0495AD}
    .fil142 {fill:#0591A9}
    .fil143 {fill:#0591AA}
    .fil144 {fill:#0592AA}
    .fil145 {fill:#0592AB}
    .fil146 {fill:#0593AB}
    .fil139 {fill:#068FA7}
    .fil140 {fill:#0690A8}
    .fil141 {fill:#0691A9}
    .fil136 {fill:#078DA5}
    .fil137 {fill:#078EA6}
    .fil138 {fill:#078EA7}
    .fil133 {fill:#088BA3}
    .fil134 {fill:#088BA4}
    .fil135 {fill:#088CA4}
    .fil129 {fill:#0988A1}
    .fil130 {fill:#0989A1}
    .fil131 {fill:#0989A2}
    .fil132 {fill:#098AA2}
    .fil125 {fill:#0A869E}
    .fil126 {fill:#0A869F}
    .fil127 {fill:#0A879F}
    .fil128 {fill:#0A88A0}
    .fil121 {fill:#0B849C}
    .fil122 {fill:#0B859D}
    .fil123 {fill:#0B859E}
    .fil124 {fill:#0B869E}
    .fil117 {fill:#0C829A}
    .fil118 {fill:#0C829B}
    .fil119 {fill:#0C839B}
    .fil120 {fill:#0C849C}
    .fil112 {fill:#0D7F98}
    .fil113 {fill:#0D8098}
    .fil114 {fill:#0D8099}
    .fil115 {fill:#0D8199}
    .fil116 {fill:#0D819A}
    .fil107 {fill:#0E7D96}
    .fil108 {fill:#0E7E96}
    .fil109 {fill:#0E7E97}
    .fil110 {fill:#0E7F97}
    .fil111 {fill:#0E7F98}
    .fil103 {fill:#0F7B94}
    .fil104 {fill:#0F7C94}
    .fil105 {fill:#0F7C95}
    .fil106 {fill:#0F7D95}
    .fil98 {fill:#107991}
    .fil99 {fill:#107992}
    .fil100 {fill:#107A92}
    .fil101 {fill:#107A93}
    .fil102 {fill:#107B93}
    .fil93 {fill:#11778F}
    .fil94 {fill:#117790}
    .fil95 {fill:#117890}
    .fil96 {fill:#117891}
    .fil97 {fill:#117991}
    .fil88 {fill:#12748D}
    .fil89 {fill:#12758D}
    .fil90 {fill:#12758E}
    .fil91 {fill:#12768E}
    .fil92 {fill:#12768F}
    .fil83 {fill:#13728B}
    .fil84 {fill:#13738B}
    .fil85 {fill:#13738C}
    .fil86 {fill:#13748C}
    .fil87 {fill:#13748D}
    .fil79 {fill:#147089}
    .fil80 {fill:#147189}
    .fil81 {fill:#14718A}
    .fil82 {fill:#14728A}
    .fil75 {fill:#156E87}
    .fil76 {fill:#156F87}
    .fil77 {fill:#156F88}
    .fil78 {fill:#157088}
    .fil70 {fill:#166C84}
    .fil71 {fill:#166C85}
    .fil72 {fill:#166D85}
    .fil73 {fill:#166D86}
    .fil74 {fill:#166E86}
    .fil65 {fill:#176A82}
    .fil66 {fill:#176A83}
    .fil67 {fill:#176B83}
    .fil68 {fill:#176B84}
    .fil69 {fill:#176C84}
    .fil60 {fill:#186780}
    .fil61 {fill:#186880}
    .fil62 {fill:#186881}
    .fil63 {fill:#186981}
    .fil64 {fill:#186982}
    .fil55 {fill:#19657E}
    .fil56 {fill:#19667E}
    .fil57 {fill:#19667F}
    .fil58 {fill:#19677F}
    .fil59 {fill:#196780}
    .fil51 {fill:#1A637C}
    .fil52 {fill:#1A647C}
    .fil53 {fill:#1A647D}
    .fil54 {fill:#1A657D}
    .fil46 {fill:#1B6179}
    .fil47 {fill:#1B617A}
    .fil48 {fill:#1B627A}
    .fil49 {fill:#1B627B}
    .fil50 {fill:#1B637B}
    .fil41 {fill:#1C5F77}
    .fil42 {fill:#1C5F78}
    .fil43 {fill:#1C6078}
    .fil44 {fill:#1C6079}
    .fil45 {fill:#1C6179}
    .fil37 {fill:#1D5C75}
    .fil38 {fill:#1D5D76}
    .fil39 {fill:#1D5E76}
    .fil40 {fill:#1D5E77}
    .fil33 {fill:#1E5A73}
    .fil34 {fill:#1E5B73}
    .fil35 {fill:#1E5B74}
    .fil36 {fill:#1E5C75}
    .fil29 {fill:#1F5871}
    .fil30 {fill:#1F5972}
    .fil31 {fill:#1F5A72}
    .fil32 {fill:#1F5A73}
    .fil25 {fill:#20566F}
    .fil26 {fill:#20576F}
    .fil27 {fill:#205770}
    .fil28 {fill:#205870}
    .fil22 {fill:#21546D}
    .fil23 {fill:#21556D}
    .fil24 {fill:#21556E}
    .fil19 {fill:#22526A}
    .fil20 {fill:#22526B}
    .fil21 {fill:#22536C}
    .fil16 {fill:#234F68}
    .fil17 {fill:#235069}
    .fil18 {fill:#23516A}
    .fil11 {fill:#244D66}
    .fil12 {fill:#244E66}
    .fil13 {fill:#244E67}
    .fil14 {fill:#244F67}
    .fil15 {fill:#244F68}
    .fil8 {fill:#254B64}
    .fil9 {fill:#254C65}
    .fil10 {fill:#254D66}
    .fil6 {fill:#264962}
    .fil7 {fill:#264A63}
    .fil4 {fill:#274760}
    .fil5 {fill:#274861}
    .fil2 {fill:#28455E}
    .fil3 {fill:#28465F}
    .fil0 {fill:#29435C}
    .fil1 {fill:#29445D}
   ]]>
  </style>
    <clipPath id="id0">
     <path d="M164 164c36,-35 75,-65 116,-89l387 242c-15,25 -12,57 9,78 16,16 38,22 58,17l95 374 -1 1 -133 -133c-7,-7 -20,-8 -30,-4l-61 -61c20,-24 29,-53 27,-82 -3,-29 -16,-58 -40,-79 -24,-21 -54,-30 -84,-28 -29,2 -58,15 -79,39 -20,24 -30,55 -28,84 3,30 16,58 40,79 24,21 54,30 84,28 23,-2 46,-10 65,-26l61 61c-4,10 -3,22 5,30l132 132c0,1 -1,2 -1,3l-377 -99c2,-18 -4,-37 -18,-51 -20,-20 -49,-24 -73,-12l-243 -389c24,-41 54,-80 89,-115zm326 315c-2,2 -6,2 -7,-1 -2,-2 -2,-5 0,-7 10,-8 22,-11 34,-11 11,0 23,4 33,11 2,2 2,6 0,8 -2,2 -5,2 -7,1 -8,-7 -17,-10 -27,-10 -9,0 -18,3 -26,9zm20 -47c-22,1 -43,11 -58,28 -15,18 -22,40 -20,61 1,21 11,42 29,57 17,15 39,22 60,21 22,-2 43,-12 58,-29 15,-17 22,-39 20,-61 -1,-21 -11,-42 -29,-57 -17,-15 -39,-22 -60,-20zm-198 -374c210,-104 470,-68 645,106 219,219 219,574 0,793 -219,219 -574,219 -793,0 -174,-175 -210,-436 -106,-646l236 378c-17,24 -14,59 8,81 24,24 64,24 89,0 3,-3 5,-6 7,-9l388 101c2,11 8,21 16,29 25,25 65,25 90,0 25,-24 25,-64 0,-89 -9,-9 -20,-15 -31,-17l-98 -387c1,-1 2,-2 2,-3 25,-25 25,-65 0,-89 -20,-21 -51,-24 -75,-11l-378 -237z"/>
    </clipPath>
 </defs>
 <g id="Layer_x0020_1">
  <metadata id="CorelCorpID_0Corel-Layer"/>
  <g>
   <g style="clip-path:url(#id0)">
    <g>
     <polygon class="fil0" points="-32,1192 -33,1131 1191,1106 1192,1167 "/>
    </g>
    <g>
     <polygon id="1" class="fil1" points="-33,1133 -33,1127 1191,1102 1191,1108 "/>
    </g>
    <g>
     <polygon id="2" class="fil1" points="-33,1129 -34,1122 1190,1097 1191,1104 "/>
    </g>
    <g>
     <polygon id="3" class="fil2" points="-33,1125 -34,1118 1190,1093 1191,1100 "/>
    </g>
    <g>
     <polygon id="4" class="fil2" points="-34,1120 -34,1114 1190,1089 1190,1095 "/>
    </g>
    <g>
     <polygon id="5" class="fil3" points="-34,1116 -34,1109 1190,1084 1190,1091 "/>
    </g>
    <g>
     <polygon id="6" class="fil3" points="-34,1112 -34,1105 1190,1080 1190,1087 "/>
    </g>
    <g>
     <polygon id="7" class="fil4" points="-34,1107 -34,1101 1190,1076 1190,1082 "/>
    </g>
    <g>
     <polygon id="8" class="fil4" points="-34,1103 -34,1096 1190,1071 1190,1078 "/>
    </g>
    <g>
     <polygon id="9" class="fil5" points="-34,1098 -34,1092 1190,1067 1190,1073 "/>
    </g>
    <g>
     <polygon id="10" class="fil5" points="-34,1094 -34,1087 1190,1062 1190,1069 "/>
    </g>
    <g>
     <polygon id="11" class="fil6" points="-34,1090 -34,1083 1190,1058 1190,1065 "/>
    </g>
    <g>
     <polygon id="12" class="fil6" points="-34,1085 -34,1079 1190,1054 1190,1060 "/>
    </g>
    <g>
     <polygon id="13" class="fil7" points="-34,1081 -34,1074 1190,1049 1190,1056 "/>
    </g>
    <g>
     <polygon id="14" class="fil7" points="-34,1076 -35,1070 1189,1045 1190,1052 "/>
    </g>
    <g>
     <polygon id="15" class="fil8" points="-35,1072 -35,1066 1189,1041 1189,1047 "/>
    </g>
    <g>
     <polygon id="16" class="fil8" points="-35,1068 -35,1061 1189,1036 1189,1043 "/>
    </g>
    <g>
     <polygon id="17" class="fil9" points="-35,1063 -35,1057 1189,1032 1189,1038 "/>
    </g>
    <g>
     <polygon id="18" class="fil9" points="-35,1059 -35,1052 1189,1027 1189,1034 "/>
    </g>
    <g>
     <polygon id="19" class="fil10" points="-35,1055 -35,1048 1189,1023 1189,1030 "/>
    </g>
    <g>
     <polygon id="20" class="fil11" points="-35,1050 -35,1044 1189,1019 1189,1025 "/>
    </g>
    <g>
     <polygon id="21" class="fil12" points="-35,1046 -35,1039 1189,1014 1189,1021 "/>
    </g>
    <g>
     <polygon id="22" class="fil13" points="-35,1041 -35,1035 1189,1010 1189,1016 "/>
    </g>
    <g>
     <polygon id="23" class="fil14" points="-35,1037 -35,1031 1189,1006 1189,1012 "/>
    </g>
    <g>
     <polygon id="24" class="fil15" points="-35,1033 -35,1026 1189,1001 1189,1008 "/>
    </g>
    <g>
     <polygon id="25" class="fil16" points="-35,1028 -36,1022 1188,997 1189,1003 "/>
    </g>
    <g>
     <polygon id="26" class="fil17" points="-36,1024 -36,1017 1188,992 1188,999 "/>
    </g>
    <g>
     <polygon id="27" class="fil17" points="-36,1020 -36,1013 1188,988 1188,995 "/>
    </g>
    <g>
     <polygon id="28" class="fil18" points="-36,1015 -36,1009 1188,984 1188,990 "/>
    </g>
    <g>
     <polygon id="29" class="fil18" points="-36,1011 -36,1004 1188,979 1188,986 "/>
    </g>
    <g>
     <polygon id="30" class="fil19" points="-36,1006 -36,1000 1188,975 1188,981 "/>
    </g>
    <g>
     <polygon id="31" class="fil20" points="-36,1002 -36,995 1188,971 1188,977 "/>
    </g>
    <g>
     <polygon id="32" class="fil20" points="-36,998 -36,991 1188,966 1188,973 "/>
    </g>
    <g>
     <polygon id="33" class="fil21" points="-36,993 -36,987 1188,962 1188,968 "/>
    </g>
    <g>
     <polygon id="34" class="fil21" points="-36,989 -36,982 1188,957 1188,964 "/>
    </g>
    <g>
     <polygon id="35" class="fil22" points="-36,985 -36,978 1188,953 1188,960 "/>
    </g>
    <g>
     <polygon id="36" class="fil22" points="-36,980 -37,974 1187,949 1188,955 "/>
    </g>
    <g>
     <polygon id="37" class="fil23" points="-36,976 -37,969 1187,944 1187,951 "/>
    </g>
    <g>
     <polygon id="38" class="fil24" points="-37,971 -37,965 1187,940 1187,946 "/>
    </g>
    <g>
     <polygon id="39" class="fil24" points="-37,967 -37,960 1187,935 1187,942 "/>
    </g>
    <g>
     <polygon id="40" class="fil25" points="-37,963 -37,956 1187,931 1187,938 "/>
    </g>
    <g>
     <polygon id="41" class="fil25" points="-37,958 -37,952 1187,927 1187,933 "/>
    </g>
    <g>
     <polygon id="42" class="fil26" points="-37,954 -37,947 1187,922 1187,929 "/>
    </g>
    <g>
     <polygon id="43" class="fil27" points="-37,950 -37,943 1187,918 1187,925 "/>
    </g>
    <g>
     <polygon id="44" class="fil27" points="-37,945 -37,939 1187,914 1187,920 "/>
    </g>
    <g>
     <polygon id="45" class="fil28" points="-37,941 -37,934 1187,909 1187,916 "/>
    </g>
    <g>
     <polygon id="46" class="fil29" points="-37,936 -37,930 1187,905 1187,911 "/>
    </g>
    <g>
     <polygon id="47" class="fil29" points="-37,932 -38,925 1186,900 1187,907 "/>
    </g>
    <g>
     <polygon id="48" class="fil30" points="-37,928 -38,921 1186,896 1187,903 "/>
    </g>
    <g>
     <polygon id="49" class="fil30" points="-38,923 -38,917 1186,892 1186,898 "/>
    </g>
    <g>
     <polygon id="50" class="fil31" points="-38,919 -38,912 1186,887 1186,894 "/>
    </g>
    <g>
     <polygon id="51" class="fil32" points="-38,914 -38,908 1186,883 1186,889 "/>
    </g>
    <g>
     <polygon id="52" class="fil33" points="-38,910 -38,904 1186,879 1186,885 "/>
    </g>
    <g>
     <polygon id="53" class="fil34" points="-38,906 -38,899 1186,874 1186,881 "/>
    </g>
    <g>
     <polygon id="54" class="fil35" points="-38,901 -38,895 1186,870 1186,876 "/>
    </g>
    <g>
     <polygon id="55" class="fil35" points="-38,897 -38,890 1186,865 1186,872 "/>
    </g>
    <g>
     <polygon id="56" class="fil36" points="-38,893 -38,886 1186,861 1186,868 "/>
    </g>
    <g>
     <polygon id="57" class="fil36" points="-38,888 -38,882 1186,857 1186,863 "/>
    </g>
    <g>
     <polygon id="58" class="fil37" points="-38,884 -39,877 1185,852 1186,859 "/>
    </g>
    <g>
     <polygon id="59" class="fil38" points="-38,879 -39,873 1185,848 1186,854 "/>
    </g>
    <g>
     <polygon id="60" class="fil38" points="-39,875 -39,869 1185,844 1185,850 "/>
    </g>
    <g>
     <polygon id="61" class="fil39" points="-39,871 -39,864 1185,839 1185,846 "/>
    </g>
    <g>
     <polygon id="62" class="fil40" points="-39,866 -39,860 1185,835 1185,841 "/>
    </g>
    <g>
     <polygon id="63" class="fil40" points="-39,862 -39,855 1185,830 1185,837 "/>
    </g>
    <g>
     <polygon id="64" class="fil41" points="-39,858 -39,851 1185,826 1185,833 "/>
    </g>
    <g>
     <polygon id="65" class="fil42" points="-39,853 -39,847 1185,822 1185,828 "/>
    </g>
    <g>
     <polygon id="66" class="fil42" points="-39,849 -39,842 1185,817 1185,824 "/>
    </g>
    <g>
     <polygon id="67" class="fil43" points="-39,844 -39,838 1185,813 1185,819 "/>
    </g>
    <g>
     <polygon id="68" class="fil44" points="-39,840 -39,833 1185,808 1185,815 "/>
    </g>
    <g>
     <polygon id="69" class="fil44" points="-39,836 -39,829 1184,804 1185,811 "/>
    </g>
    <g>
     <polygon id="70" class="fil45" points="-39,831 -40,825 1184,800 1185,806 "/>
    </g>
    <g>
     <polygon id="71" class="fil46" points="-40,827 -40,820 1184,795 1184,802 "/>
    </g>
    <g>
     <polygon id="72" class="fil47" points="-40,823 -40,816 1184,791 1184,798 "/>
    </g>
    <g>
     <polygon id="73" class="fil47" points="-40,818 -40,812 1184,787 1184,793 "/>
    </g>
    <g>
     <polygon id="74" class="fil48" points="-40,814 -40,807 1184,782 1184,789 "/>
    </g>
    <g>
     <polygon id="75" class="fil49" points="-40,809 -40,803 1184,778 1184,784 "/>
    </g>
    <g>
     <polygon id="76" class="fil49" points="-40,805 -40,798 1184,773 1184,780 "/>
    </g>
    <g>
     <polygon id="77" class="fil50" points="-40,801 -40,794 1184,769 1184,776 "/>
    </g>
    <g>
     <polygon id="78" class="fil51" points="-40,796 -40,790 1184,765 1184,771 "/>
    </g>
    <g>
     <polygon id="79" class="fil51" points="-40,792 -40,785 1184,760 1184,767 "/>
    </g>
    <g>
     <polygon id="80" class="fil52" points="-40,787 -40,781 1184,756 1184,763 "/>
    </g>
    <g>
     <polygon id="81" class="fil53" points="-40,783 -41,777 1183,752 1184,758 "/>
    </g>
    <g>
     <polygon id="82" class="fil53" points="-41,779 -41,772 1183,747 1183,754 "/>
    </g>
    <g>
     <polygon id="83" class="fil54" points="-41,774 -41,768 1183,743 1183,749 "/>
    </g>
    <g>
     <polygon id="84" class="fil54" points="-41,770 -41,763 1183,738 1183,745 "/>
    </g>
    <g>
     <polygon id="85" class="fil55" points="-41,766 -41,759 1183,734 1183,741 "/>
    </g>
    <g>
     <polygon id="86" class="fil55" points="-41,761 -41,755 1183,730 1183,736 "/>
    </g>
    <g>
     <polygon id="87" class="fil56" points="-41,757 -41,750 1183,725 1183,732 "/>
    </g>
    <g>
     <polygon id="88" class="fil57" points="-41,752 -41,746 1183,721 1183,727 "/>
    </g>
    <g>
     <polygon id="89" class="fil57" points="-41,748 -41,742 1183,717 1183,723 "/>
    </g>
    <g>
     <polygon id="90" class="fil58" points="-41,744 -41,737 1183,712 1183,719 "/>
    </g>
    <g>
     <polygon id="91" class="fil58" points="-41,739 -41,733 1183,708 1183,714 "/>
    </g>
    <g>
     <polygon id="92" class="fil59" points="-41,735 -42,728 1182,703 1183,710 "/>
    </g>
    <g>
     <polygon id="93" class="fil60" points="-41,731 -42,724 1182,699 1182,706 "/>
    </g>
    <g>
     <polygon id="94" class="fil61" points="-42,726 -42,720 1182,695 1182,701 "/>
    </g>
    <g>
     <polygon id="95" class="fil62" points="-42,722 -42,715 1182,690 1182,697 "/>
    </g>
    <g>
     <polygon id="96" class="fil62" points="-42,717 -42,711 1182,686 1182,692 "/>
    </g>
    <g>
     <polygon id="97" class="fil62" points="-42,713 -42,706 1182,682 1182,688 "/>
    </g>
    <g>
     <polygon id="98" class="fil63" points="-42,709 -42,702 1182,677 1182,684 "/>
    </g>
    <g>
     <polygon id="99" class="fil64" points="-42,704 -42,698 1182,673 1182,679 "/>
    </g>
    <g>
     <polygon id="100" class="fil64" points="-42,700 -42,693 1182,668 1182,675 "/>
    </g>
    <g>
     <polygon id="101" class="fil65" points="-42,696 -42,689 1182,664 1182,671 "/>
    </g>
    <g>
     <polygon id="102" class="fil65" points="-42,691 -42,685 1182,660 1182,666 "/>
    </g>
    <g>
     <polygon id="103" class="fil66" points="-42,687 -43,680 1181,655 1182,662 "/>
    </g>
    <g>
     <polygon id="104" class="fil66" points="-42,682 -43,676 1181,651 1182,657 "/>
    </g>
    <g>
     <polygon id="105" class="fil67" points="-43,678 -43,671 1181,646 1181,653 "/>
    </g>
    <g>
     <polygon id="106" class="fil67" points="-43,674 -43,667 1181,642 1181,649 "/>
    </g>
    <g>
     <polygon id="107" class="fil68" points="-43,669 -43,663 1181,638 1181,644 "/>
    </g>
    <g>
     <polygon id="108" class="fil68" points="-43,665 -43,658 1181,633 1181,640 "/>
    </g>
    <g>
     <polygon id="109" class="fil69" points="-43,661 -43,654 1181,629 1181,636 "/>
    </g>
    <g>
     <polygon id="110" class="fil70" points="-43,656 -43,650 1181,625 1181,631 "/>
    </g>
    <g>
     <polygon id="111" class="fil71" points="-43,652 -43,645 1181,620 1181,627 "/>
    </g>
    <g>
     <polygon id="112" class="fil71" points="-43,647 -43,641 1181,616 1181,622 "/>
    </g>
    <g>
     <polygon id="113" class="fil72" points="-43,643 -43,636 1181,611 1181,618 "/>
    </g>
    <g>
     <polygon id="114" class="fil72" points="-43,639 -44,632 1180,607 1181,614 "/>
    </g>
    <g>
     <polygon id="115" class="fil73" points="-43,634 -44,628 1180,603 1181,609 "/>
    </g>
    <g>
     <polygon id="116" class="fil73" points="-44,630 -44,623 1180,598 1180,605 "/>
    </g>
    <g>
     <polygon id="117" class="fil74" points="-44,625 -44,619 1180,594 1180,601 "/>
    </g>
    <g>
     <polygon id="118" class="fil74" points="-44,621 -44,615 1180,590 1180,596 "/>
    </g>
    <g>
     <polygon id="119" class="fil75" points="-44,617 -44,610 1180,585 1180,592 "/>
    </g>
    <g>
     <polygon id="120" class="fil75" points="-44,612 -44,606 1180,581 1180,587 "/>
    </g>
    <g>
     <polygon id="121" class="fil76" points="-44,608 -44,601 1180,576 1180,583 "/>
    </g>
    <g>
     <polygon id="122" class="fil76" points="-44,604 -44,597 1180,572 1180,579 "/>
    </g>
    <g>
     <polygon id="123" class="fil76" points="-44,599 -44,593 1180,568 1180,574 "/>
    </g>
    <g>
     <polygon id="124" class="fil77" points="-44,595 -44,588 1180,563 1180,570 "/>
    </g>
    <g>
     <polygon id="125" class="fil77" points="-44,590 -44,584 1179,559 1180,565 "/>
    </g>
    <g>
     <polygon id="126" class="fil78" points="-44,586 -45,580 1179,555 1180,561 "/>
    </g>
    <g>
     <polygon id="127" class="fil78" points="-45,582 -45,575 1179,550 1179,557 "/>
    </g>
    <g>
     <polygon id="128" class="fil79" points="-45,577 -45,571 1179,546 1179,552 "/>
    </g>
    <g>
     <polygon id="129" class="fil79" points="-45,573 -45,566 1179,541 1179,548 "/>
    </g>
    <g>
     <polygon id="130" class="fil80" points="-45,569 -45,562 1179,537 1179,544 "/>
    </g>
    <g>
     <polygon id="131" class="fil80" points="-45,564 -45,558 1179,533 1179,539 "/>
    </g>
    <g>
     <polygon id="132" class="fil81" points="-45,560 -45,553 1179,528 1179,535 "/>
    </g>
    <g>
     <polygon id="133" class="fil81" points="-45,555 -45,549 1179,524 1179,530 "/>
    </g>
    <g>
     <polygon id="134" class="fil81" points="-45,551 -45,544 1179,520 1179,526 "/>
    </g>
    <g>
     <polygon id="135" class="fil82" points="-45,547 -45,540 1179,515 1179,522 "/>
    </g>
    <g>
     <polygon id="136" class="fil82" points="-45,542 -45,536 1179,511 1179,517 "/>
    </g>
    <g>
     <polygon id="137" class="fil83" points="-45,538 -46,531 1178,506 1179,513 "/>
    </g>
    <g>
     <polygon id="138" class="fil83" points="-46,534 -46,527 1178,502 1178,509 "/>
    </g>
    <g>
     <polygon id="139" class="fil84" points="-46,529 -46,523 1178,498 1178,504 "/>
    </g>
    <g>
     <polygon id="140" class="fil84" points="-46,525 -46,518 1178,493 1178,500 "/>
    </g>
    <g>
     <polygon id="141" class="fil85" points="-46,520 -46,514 1178,489 1178,495 "/>
    </g>
    <g>
     <polygon id="142" class="fil85" points="-46,516 -46,509 1178,484 1178,491 "/>
    </g>
    <g>
     <polygon id="143" class="fil86" points="-46,512 -46,505 1178,480 1178,487 "/>
    </g>
    <g>
     <polygon id="144" class="fil86" points="-46,507 -46,501 1178,476 1178,482 "/>
    </g>
    <g>
     <polygon id="145" class="fil87" points="-46,503 -46,496 1178,471 1178,478 "/>
    </g>
    <g>
     <polygon id="146" class="fil88" points="-46,499 -46,492 1178,467 1178,474 "/>
    </g>
    <g>
     <polygon id="147" class="fil89" points="-46,494 -46,488 1178,463 1178,469 "/>
    </g>
    <g>
     <polygon id="148" class="fil89" points="-46,490 -47,483 1177,458 1178,465 "/>
    </g>
    <g>
     <polygon id="149" class="fil90" points="-47,485 -47,479 1177,454 1177,460 "/>
    </g>
    <g>
     <polygon id="150" class="fil90" points="-47,481 -47,474 1177,449 1177,456 "/>
    </g>
    <g>
     <polygon id="151" class="fil91" points="-47,477 -47,470 1177,445 1177,452 "/>
    </g>
    <g>
     <polygon id="152" class="fil91" points="-47,472 -47,466 1177,441 1177,447 "/>
    </g>
    <g>
     <polygon id="153" class="fil92" points="-47,468 -47,461 1177,436 1177,443 "/>
    </g>
    <g>
     <polygon id="154" class="fil92" points="-47,463 -47,457 1177,432 1177,438 "/>
    </g>
    <g>
     <polygon id="155" class="fil93" points="-47,459 -47,453 1177,428 1177,434 "/>
    </g>
    <g>
     <polygon id="156" class="fil93" points="-47,455 -47,448 1177,423 1177,430 "/>
    </g>
    <g>
     <polygon id="157" class="fil94" points="-47,450 -47,444 1177,419 1177,425 "/>
    </g>
    <g>
     <polygon id="158" class="fil95" points="-47,446 -47,439 1177,414 1177,421 "/>
    </g>
    <g>
     <polygon id="159" class="fil95" points="-47,442 -48,435 1176,410 1177,417 "/>
    </g>
    <g>
     <polygon id="160" class="fil95" points="-47,437 -48,431 1176,406 1177,412 "/>
    </g>
    <g>
     <polygon id="161" class="fil96" points="-48,433 -48,426 1176,401 1176,408 "/>
    </g>
    <g>
     <polygon id="162" class="fil97" points="-48,428 -48,422 1176,397 1176,403 "/>
    </g>
    <g>
     <polygon id="163" class="fil98" points="-48,424 -48,417 1176,393 1176,399 "/>
    </g>
    <g>
     <polygon id="164" class="fil99" points="-48,420 -48,413 1176,388 1176,395 "/>
    </g>
    <g>
     <polygon id="165" class="fil99" points="-48,415 -48,409 1176,384 1176,390 "/>
    </g>
    <g>
     <polygon id="166" class="fil100" points="-48,411 -48,404 1176,379 1176,386 "/>
    </g>
    <g>
     <polygon id="167" class="fil100" points="-48,407 -48,400 1176,375 1176,382 "/>
    </g>
    <g>
     <polygon id="168" class="fil101" points="-48,402 -48,396 1176,371 1176,377 "/>
    </g>
    <g>
     <polygon id="169" class="fil102" points="-48,398 -48,391 1176,366 1176,373 "/>
    </g>
    <g>
     <polygon id="170" class="fil102" points="-48,393 -49,387 1175,362 1176,368 "/>
    </g>
    <g>
     <polygon id="171" class="fil103" points="-48,389 -49,382 1175,357 1176,364 "/>
    </g>
    <g>
     <polygon id="172" class="fil103" points="-49,385 -49,378 1175,353 1175,360 "/>
    </g>
    <g>
     <polygon id="173" class="fil104" points="-49,380 -49,374 1175,349 1175,355 "/>
    </g>
    <g>
     <polygon id="174" class="fil104" points="-49,376 -49,369 1175,344 1175,351 "/>
    </g>
    <g>
     <polygon id="175" class="fil105" points="-49,372 -49,365 1175,340 1175,347 "/>
    </g>
    <g>
     <polygon id="176" class="fil106" points="-49,367 -49,361 1175,336 1175,342 "/>
    </g>
    <g>
     <polygon id="177" class="fil106" points="-49,363 -49,356 1175,331 1175,338 "/>
    </g>
    <g>
     <polygon id="178" class="fil107" points="-49,358 -49,352 1175,327 1175,333 "/>
    </g>
    <g>
     <polygon id="179" class="fil108" points="-49,354 -49,347 1175,322 1175,329 "/>
    </g>
    <g>
     <polygon id="180" class="fil108" points="-49,350 -49,343 1175,318 1175,325 "/>
    </g>
    <g>
     <polygon id="181" class="fil109" points="-49,345 -49,339 1174,314 1175,320 "/>
    </g>
    <g>
     <polygon id="182" class="fil110" points="-49,341 -50,334 1174,309 1175,316 "/>
    </g>
    <g>
     <polygon id="183" class="fil110" points="-50,336 -50,330 1174,305 1174,312 "/>
    </g>
    <g>
     <polygon id="184" class="fil111" points="-50,332 -50,326 1174,301 1174,307 "/>
    </g>
    <g>
     <polygon id="185" class="fil112" points="-50,328 -50,321 1174,296 1174,303 "/>
    </g>
    <g>
     <polygon id="186" class="fil113" points="-50,323 -50,317 1174,292 1174,298 "/>
    </g>
    <g>
     <polygon id="187" class="fil113" points="-50,319 -50,312 1174,287 1174,294 "/>
    </g>
    <g>
     <polygon id="188" class="fil114" points="-50,315 -50,308 1174,283 1174,290 "/>
    </g>
    <g>
     <polygon id="189" class="fil115" points="-50,310 -50,304 1174,279 1174,285 "/>
    </g>
    <g>
     <polygon id="190" class="fil115" points="-50,306 -50,299 1174,274 1174,281 "/>
    </g>
    <g>
     <polygon id="191" class="fil116" points="-50,301 -50,295 1174,270 1174,276 "/>
    </g>
    <g>
     <polygon id="192" class="fil117" points="-50,297 -50,291 1174,266 1174,272 "/>
    </g>
    <g>
     <polygon id="193" class="fil117" points="-50,293 -51,286 1173,261 1174,268 "/>
    </g>
    <g>
     <polygon id="194" class="fil118" points="-51,288 -51,282 1173,257 1173,263 "/>
    </g>
    <g>
     <polygon id="195" class="fil119" points="-51,284 -51,277 1173,252 1173,259 "/>
    </g>
    <g>
     <polygon id="196" class="fil119" points="-51,280 -51,273 1173,248 1173,255 "/>
    </g>
    <g>
     <polygon id="197" class="fil120" points="-51,275 -51,269 1173,244 1173,250 "/>
    </g>
    <g>
     <polygon id="198" class="fil121" points="-51,271 -51,264 1173,239 1173,246 "/>
    </g>
    <g>
     <polygon id="199" class="fil121" points="-51,266 -51,260 1173,235 1173,241 "/>
    </g>
    <g>
     <polygon id="200" class="fil122" points="-51,262 -51,255 1173,231 1173,237 "/>
    </g>
    <g>
     <polygon id="201" class="fil122" points="-51,258 -51,251 1173,226 1173,233 "/>
    </g>
    <g>
     <polygon id="202" class="fil123" points="-51,253 -51,247 1173,222 1173,228 "/>
    </g>
    <g>
     <polygon id="203" class="fil124" points="-51,249 -51,242 1173,217 1173,224 "/>
    </g>
    <g>
     <polygon id="204" class="fil125" points="-51,245 -52,238 1172,213 1173,220 "/>
    </g>
    <g>
     <polygon id="205" class="fil126" points="-52,240 -52,234 1172,209 1172,215 "/>
    </g>
    <g>
     <polygon id="206" class="fil127" points="-52,236 -52,229 1172,204 1172,211 "/>
    </g>
    <g>
     <polygon id="207" class="fil127" points="-52,231 -52,225 1172,200 1172,206 "/>
    </g>
    <g>
     <polygon id="208" class="fil128" points="-52,227 -52,220 1172,195 1172,202 "/>
    </g>
    <g>
     <polygon id="209" class="fil128" points="-52,223 -52,216 1172,191 1172,198 "/>
    </g>
    <g>
     <polygon id="210" class="fil129" points="-52,218 -52,212 1172,187 1172,193 "/>
    </g>
    <g>
     <polygon id="211" class="fil130" points="-52,214 -52,207 1172,182 1172,189 "/>
    </g>
    <g>
     <polygon id="212" class="fil130" points="-52,210 -52,203 1172,178 1172,185 "/>
    </g>
    <g>
     <polygon id="213" class="fil131" points="-52,205 -52,199 1172,174 1172,180 "/>
    </g>
    <g>
     <polygon id="214" class="fil132" points="-52,201 -52,194 1172,169 1172,176 "/>
    </g>
    <g>
     <polygon id="215" class="fil132" points="-52,196 -53,190 1171,165 1172,171 "/>
    </g>
    <g>
     <polygon id="216" class="fil133" points="-52,192 -53,185 1171,160 1171,167 "/>
    </g>
    <g>
     <polygon id="217" class="fil133" points="-53,188 -53,181 1171,156 1171,163 "/>
    </g>
    <g>
     <polygon id="218" class="fil134" points="-53,183 -53,177 1171,152 1171,158 "/>
    </g>
    <g>
     <polygon id="219" class="fil135" points="-53,179 -53,172 1171,147 1171,154 "/>
    </g>
    <g>
     <polygon id="220" class="fil135" points="-53,174 -53,168 1171,143 1171,150 "/>
    </g>
    <g>
     <polygon id="221" class="fil136" points="-53,170 -53,164 1171,139 1171,145 "/>
    </g>
    <g>
     <polygon id="222" class="fil136" points="-53,166 -53,159 1171,134 1171,141 "/>
    </g>
    <g>
     <polygon id="223" class="fil137" points="-53,161 -53,155 1171,130 1171,136 "/>
    </g>
    <g>
     <polygon id="224" class="fil137" points="-53,157 -53,150 1171,125 1171,132 "/>
    </g>
    <g>
     <polygon id="225" class="fil138" points="-53,153 -53,146 1171,121 1171,128 "/>
    </g>
    <g>
     <polygon id="226" class="fil139" points="-53,148 -54,142 1170,117 1171,123 "/>
    </g>
    <g>
     <polygon id="227" class="fil139" points="-53,144 -54,137 1170,112 1171,119 "/>
    </g>
    <g>
     <polygon id="228" class="fil140" points="-54,139 -54,133 1170,108 1170,114 "/>
    </g>
    <g>
     <polygon id="229" class="fil140" points="-54,135 -54,129 1170,104 1170,110 "/>
    </g>
    <g>
     <polygon id="230" class="fil141" points="-54,131 -54,124 1170,99 1170,106 "/>
    </g>
    <g>
     <polygon id="231" class="fil142" points="-54,126 -54,120 1170,95 1170,101 "/>
    </g>
    <g>
     <polygon id="232" class="fil143" points="-54,122 -54,115 1170,90 1170,97 "/>
    </g>
    <g>
     <polygon id="233" class="fil144" points="-54,118 -54,111 1170,86 1170,93 "/>
    </g>
    <g>
     <polygon id="234" class="fil145" points="-54,113 -54,107 1170,82 1170,88 "/>
    </g>
    <g>
     <polygon id="235" class="fil146" points="-54,109 -54,102 1170,77 1170,84 "/>
    </g>
    <g>
     <polygon id="236" class="fil147" points="-54,104 -54,98 1170,73 1170,79 "/>
    </g>
    <g>
     <polygon id="237" class="fil148" points="-54,100 -55,93 1169,68 1170,75 "/>
    </g>
    <g>
     <polygon id="238" class="fil148" points="-54,96 -55,89 1169,64 1170,71 "/>
    </g>
    <g>
     <polygon id="239" class="fil149" points="-55,91 -55,85 1169,60 1169,66 "/>
    </g>
    <g>
     <polygon id="240" class="fil149" points="-55,87 -55,80 1169,55 1169,62 "/>
    </g>
    <g>
     <polygon id="241" class="fil150" points="-55,83 -55,76 1169,51 1169,58 "/>
    </g>
    <g>
     <polygon id="242" class="fil150" points="-55,78 -55,72 1169,47 1169,53 "/>
    </g>
    <g>
     <polygon id="243" class="fil151" points="-55,74 -55,67 1169,42 1169,49 "/>
    </g>
    <g>
     <polygon id="244" class="fil151" points="-55,69 -55,63 1169,38 1169,44 "/>
    </g>
    <g>
     <polygon id="245" class="fil152" points="-55,65 -55,58 1169,33 1169,40 "/>
    </g>
    <g>
     <polygon id="246" class="fil152" points="-55,61 -55,54 1169,29 1169,36 "/>
    </g>
    <g>
     <polygon id="247" class="fil153" points="-55,56 -55,50 1169,25 1169,31 "/>
    </g>
    <g>
     <polygon id="248" class="fil153" points="-55,52 -55,45 1169,20 1169,27 "/>
    </g>
    <g>
     <polygon id="249" class="fil154" points="-55,47 -56,41 1168,16 1169,23 "/>
    </g>
    <g>
     <polygon id="250" class="fil154" points="-56,43 -56,37 1168,12 1168,18 "/>
    </g>
    <g>
     <polygon id="251" class="fil155" points="-56,39 -56,32 1168,7 1168,14 "/>
    </g>
    <g>
     <polygon id="252" class="fil155" points="-56,34 -56,28 1168,3 1168,9 "/>
    </g>
    <g>
     <polygon id="253" class="fil156" points="-56,30 -56,23 1168,-2 1168,5 "/>
    </g>
    <g>
     <polygon id="254" class="fil156" points="-56,26 -56,19 1168,-6 1168,1 "/>
    </g>
    <g>
     <polygon id="255" class="fil157" points="-56,21 -57,-34 1167,-59 1168,-4 "/>
    </g>
   </g>
  </g>
 </g>
</svg>
