<?xml version="1.0" encoding="UTF-8"?>
<!DOCTYPE svg PUBLIC "-//W3C//DTD SVG 1.1//EN" "http://www.w3.org/Graphics/SVG/1.1/DTD/svg11.dtd">
<!-- Creator: CorelDRAW X7 -->
<svg xmlns="http://www.w3.org/2000/svg" xml:space="preserve" width="710px" height="710px" version="1.1" style="shape-rendering:geometricPrecision; text-rendering:geometricPrecision; image-rendering:optimizeQuality; fill-rule:evenodd; clip-rule:evenodd"
viewBox="0 0 631 631"
 xmlns:xlink="http://www.w3.org/1999/xlink">
 <defs>
  <style type="text/css">
   <![CDATA[
    .fil0 {fill:#FEFEFE}
    .fil157 {fill:#009CB4}
    .fil158 {fill:#009DB5}
    .fil155 {fill:#019AB2}
    .fil156 {fill:#019BB3}
    .fil153 {fill:#0298B0}
    .fil154 {fill:#0299B1}
    .fil151 {fill:#0396AE}
    .fil152 {fill:#0397AF}
    .fil148 {fill:#0493AB}
    .fil149 {fill:#0494AC}
    .fil150 {fill:#0495AD}
    .fil143 {fill:#0591A9}
    .fil144 {fill:#0591AA}
    .fil145 {fill:#0592AA}
    .fil146 {fill:#0592AB}
    .fil147 {fill:#0593AB}
    .fil140 {fill:#068FA7}
    .fil141 {fill:#0690A8}
    .fil142 {fill:#0691A9}
    .fil137 {fill:#078DA5}
    .fil138 {fill:#078EA6}
    .fil139 {fill:#078EA7}
    .fil134 {fill:#088BA3}
    .fil135 {fill:#088BA4}
    .fil136 {fill:#088CA4}
    .fil130 {fill:#0988A1}
    .fil131 {fill:#0989A1}
    .fil132 {fill:#0989A2}
    .fil133 {fill:#098AA2}
    .fil126 {fill:#0A869E}
    .fil127 {fill:#0A869F}
    .fil128 {fill:#0A879F}
    .fil129 {fill:#0A88A0}
    .fil122 {fill:#0B849C}
    .fil123 {fill:#0B859D}
    .fil124 {fill:#0B859E}
    .fil125 {fill:#0B869E}
    .fil118 {fill:#0C829A}
    .fil119 {fill:#0C829B}
    .fil120 {fill:#0C839B}
    .fil121 {fill:#0C849C}
    .fil113 {fill:#0D7F98}
    .fil114 {fill:#0D8098}
    .fil115 {fill:#0D8099}
    .fil116 {fill:#0D8199}
    .fil117 {fill:#0D819A}
    .fil108 {fill:#0E7D96}
    .fil109 {fill:#0E7E96}
    .fil110 {fill:#0E7E97}
    .fil111 {fill:#0E7F97}
    .fil112 {fill:#0E7F98}
    .fil104 {fill:#0F7B94}
    .fil105 {fill:#0F7C94}
    .fil106 {fill:#0F7C95}
    .fil107 {fill:#0F7D95}
    .fil99 {fill:#107991}
    .fil100 {fill:#107992}
    .fil101 {fill:#107A92}
    .fil102 {fill:#107A93}
    .fil103 {fill:#107B93}
    .fil94 {fill:#11778F}
    .fil95 {fill:#117790}
    .fil96 {fill:#117890}
    .fil97 {fill:#117891}
    .fil98 {fill:#117991}
    .fil89 {fill:#12748D}
    .fil90 {fill:#12758D}
    .fil91 {fill:#12758E}
    .fil92 {fill:#12768E}
    .fil93 {fill:#12768F}
    .fil84 {fill:#13728B}
    .fil85 {fill:#13738B}
    .fil86 {fill:#13738C}
    .fil87 {fill:#13748C}
    .fil88 {fill:#13748D}
    .fil80 {fill:#147089}
    .fil81 {fill:#147189}
    .fil82 {fill:#14718A}
    .fil83 {fill:#14728A}
    .fil76 {fill:#156E87}
    .fil77 {fill:#156F87}
    .fil78 {fill:#156F88}
    .fil79 {fill:#157088}
    .fil71 {fill:#166C84}
    .fil72 {fill:#166C85}
    .fil73 {fill:#166D85}
    .fil74 {fill:#166D86}
    .fil75 {fill:#166E86}
    .fil66 {fill:#176A82}
    .fil67 {fill:#176A83}
    .fil68 {fill:#176B83}
    .fil69 {fill:#176B84}
    .fil70 {fill:#176C84}
    .fil61 {fill:#186780}
    .fil62 {fill:#186880}
    .fil63 {fill:#186881}
    .fil64 {fill:#186981}
    .fil65 {fill:#186982}
    .fil56 {fill:#19657E}
    .fil57 {fill:#19667E}
    .fil58 {fill:#19667F}
    .fil59 {fill:#19677F}
    .fil60 {fill:#196780}
    .fil52 {fill:#1A637C}
    .fil53 {fill:#1A647C}
    .fil54 {fill:#1A647D}
    .fil55 {fill:#1A657D}
    .fil47 {fill:#1B6179}
    .fil48 {fill:#1B617A}
    .fil49 {fill:#1B627A}
    .fil50 {fill:#1B627B}
    .fil51 {fill:#1B637B}
    .fil42 {fill:#1C5F77}
    .fil43 {fill:#1C5F78}
    .fil44 {fill:#1C6078}
    .fil45 {fill:#1C6079}
    .fil46 {fill:#1C6179}
    .fil38 {fill:#1D5C75}
    .fil39 {fill:#1D5D76}
    .fil40 {fill:#1D5E76}
    .fil41 {fill:#1D5E77}
    .fil34 {fill:#1E5A73}
    .fil35 {fill:#1E5B73}
    .fil36 {fill:#1E5B74}
    .fil37 {fill:#1E5C75}
    .fil30 {fill:#1F5871}
    .fil31 {fill:#1F5972}
    .fil32 {fill:#1F5A72}
    .fil33 {fill:#1F5A73}
    .fil26 {fill:#20566F}
    .fil27 {fill:#20576F}
    .fil28 {fill:#205770}
    .fil29 {fill:#205870}
    .fil23 {fill:#21546D}
    .fil24 {fill:#21556D}
    .fil25 {fill:#21556E}
    .fil20 {fill:#22526A}
    .fil21 {fill:#22526B}
    .fil22 {fill:#22536C}
    .fil17 {fill:#234F68}
    .fil18 {fill:#235069}
    .fil19 {fill:#23516A}
    .fil12 {fill:#244D66}
    .fil13 {fill:#244E66}
    .fil14 {fill:#244E67}
    .fil15 {fill:#244F67}
    .fil16 {fill:#244F68}
    .fil9 {fill:#254B64}
    .fil10 {fill:#254C65}
    .fil11 {fill:#254D66}
    .fil7 {fill:#264962}
    .fil8 {fill:#264A63}
    .fil5 {fill:#274760}
    .fil6 {fill:#274861}
    .fil3 {fill:#28455E}
    .fil4 {fill:#28465F}
    .fil1 {fill:#29435C}
    .fil2 {fill:#29445D}
   ]]>
  </style>
    <clipPath id="id0">
     <path d="M92 92c20,-20 42,-36 65,-50l218 137c-8,13 -7,31 5,43 9,9 21,12 33,10l53 210 -1 0 -74 -74c-4,-4 -11,-5 -17,-3l-34 -34c11,-13 16,-30 15,-46 -2,-16 -9,-33 -23,-44 -13,-12 -30,-17 -47,-16 -16,1 -32,9 -44,22 -12,14 -17,31 -16,47 1,17 9,33 22,45 14,11 31,17 47,15 14,-1 27,-6 37,-14l35 34c-3,5 -2,12 2,17l75 74c-1,1 -1,1 -1,2l-212 -56c1,-10 -2,-21 -10,-29 -11,-11 -28,-13 -41,-6l-137 -219c14,-23 31,-45 50,-65zm184 178c-2,1 -4,0 -5,-1 -1,-1 0,-3 1,-4 5,-4 12,-7 19,-6 6,0 13,2 18,6 1,1 1,3 0,4 -1,2 -2,2 -4,1 -4,-4 -9,-6 -15,-6 -5,0 -10,2 -14,6zm11 -27c-12,1 -24,6 -33,16 -8,10 -12,22 -11,34 1,12 6,24 16,32 10,9 22,12 34,12 12,-1 24,-7 32,-16 9,-10 13,-23 12,-35 -1,-12 -6,-23 -16,-32 -10,-8 -22,-12 -34,-11zm-112 -210c118,-59 265,-39 363,59 123,123 123,323 0,446 -123,123 -323,123 -446,0 -98,-98 -118,-245 -59,-363l132 212c-9,14 -8,33 5,46 13,14 36,14 50,0 1,-2 3,-3 4,-5l218 57c1,6 5,12 9,16 14,14 37,14 51,0 14,-14 14,-36 0,-50 -5,-5 -12,-8 -18,-10l-55 -217c0,-1 1,-1 1,-2 14,-14 14,-36 0,-50 -11,-12 -28,-14 -42,-6l-213 -133z"/>
    </clipPath>
 </defs>
 <g id="Layer_x0020_1">
  <metadata id="CorelCorpID_0Corel-Layer"/>
  <circle class="fil0" cx="315" cy="315" r="315"/>
  <g>
   <g style="clip-path:url(#id0)">
    <g>
     <polygon class="fil1" points="-18,670 -19,636 670,622 670,656 "/>
    </g>
    <g>
     <polygon id="1" class="fil2" points="-19,637 -19,634 670,620 670,623 "/>
    </g>
    <g>
     <polygon id="2" class="fil2" points="-19,635 -19,631 670,617 670,621 "/>
    </g>
    <g>
     <polygon id="3" class="fil3" points="-19,632 -19,629 669,615 670,618 "/>
    </g>
    <g>
     <polygon id="4" class="fil3" points="-19,630 -19,626 669,612 669,616 "/>
    </g>
    <g>
     <polygon id="5" class="fil4" points="-19,628 -19,624 669,610 669,614 "/>
    </g>
    <g>
     <polygon id="6" class="fil4" points="-19,625 -19,621 669,607 669,611 "/>
    </g>
    <g>
     <polygon id="7" class="fil5" points="-19,623 -19,619 669,605 669,609 "/>
    </g>
    <g>
     <polygon id="8" class="fil5" points="-19,620 -19,616 669,602 669,606 "/>
    </g>
    <g>
     <polygon id="9" class="fil6" points="-19,618 -19,614 669,600 669,604 "/>
    </g>
    <g>
     <polygon id="10" class="fil6" points="-19,615 -19,612 669,598 669,601 "/>
    </g>
    <g>
     <polygon id="11" class="fil7" points="-19,613 -19,609 669,595 669,599 "/>
    </g>
    <g>
     <polygon id="12" class="fil7" points="-19,610 -19,607 669,593 669,596 "/>
    </g>
    <g>
     <polygon id="13" class="fil8" points="-19,608 -19,604 669,590 669,594 "/>
    </g>
    <g>
     <polygon id="14" class="fil8" points="-19,605 -19,602 669,588 669,591 "/>
    </g>
    <g>
     <polygon id="15" class="fil9" points="-19,603 -19,599 669,585 669,589 "/>
    </g>
    <g>
     <polygon id="16" class="fil9" points="-19,600 -20,597 669,583 669,586 "/>
    </g>
    <g>
     <polygon id="17" class="fil10" points="-20,598 -20,594 669,580 669,584 "/>
    </g>
    <g>
     <polygon id="18" class="fil10" points="-20,596 -20,592 669,578 669,582 "/>
    </g>
    <g>
     <polygon id="19" class="fil11" points="-20,593 -20,589 669,575 669,579 "/>
    </g>
    <g>
     <polygon id="20" class="fil12" points="-20,591 -20,587 669,573 669,577 "/>
    </g>
    <g>
     <polygon id="21" class="fil13" points="-20,588 -20,584 669,570 669,574 "/>
    </g>
    <g>
     <polygon id="22" class="fil14" points="-20,586 -20,582 669,568 669,572 "/>
    </g>
    <g>
     <polygon id="23" class="fil15" points="-20,583 -20,580 668,566 669,569 "/>
    </g>
    <g>
     <polygon id="24" class="fil16" points="-20,581 -20,577 668,563 668,567 "/>
    </g>
    <g>
     <polygon id="25" class="fil17" points="-20,578 -20,575 668,561 668,564 "/>
    </g>
    <g>
     <polygon id="26" class="fil18" points="-20,576 -20,572 668,558 668,562 "/>
    </g>
    <g>
     <polygon id="27" class="fil18" points="-20,573 -20,570 668,556 668,559 "/>
    </g>
    <g>
     <polygon id="28" class="fil19" points="-20,571 -20,567 668,553 668,557 "/>
    </g>
    <g>
     <polygon id="29" class="fil19" points="-20,568 -20,565 668,551 668,554 "/>
    </g>
    <g>
     <polygon id="30" class="fil20" points="-20,566 -20,562 668,548 668,552 "/>
    </g>
    <g>
     <polygon id="31" class="fil21" points="-20,564 -20,560 668,546 668,549 "/>
    </g>
    <g>
     <polygon id="32" class="fil21" points="-20,561 -20,557 668,543 668,547 "/>
    </g>
    <g>
     <polygon id="33" class="fil22" points="-20,559 -20,555 668,541 668,545 "/>
    </g>
    <g>
     <polygon id="34" class="fil22" points="-20,556 -20,552 668,538 668,542 "/>
    </g>
    <g>
     <polygon id="35" class="fil23" points="-20,554 -20,550 668,536 668,540 "/>
    </g>
    <g>
     <polygon id="36" class="fil23" points="-20,551 -21,548 668,533 668,537 "/>
    </g>
    <g>
     <polygon id="37" class="fil24" points="-21,549 -21,545 668,531 668,535 "/>
    </g>
    <g>
     <polygon id="38" class="fil25" points="-21,546 -21,543 668,529 668,532 "/>
    </g>
    <g>
     <polygon id="39" class="fil25" points="-21,544 -21,540 668,526 668,530 "/>
    </g>
    <g>
     <polygon id="40" class="fil26" points="-21,541 -21,538 668,524 668,527 "/>
    </g>
    <g>
     <polygon id="41" class="fil26" points="-21,539 -21,535 668,521 668,525 "/>
    </g>
    <g>
     <polygon id="42" class="fil27" points="-21,536 -21,533 668,519 668,522 "/>
    </g>
    <g>
     <polygon id="43" class="fil28" points="-21,534 -21,530 667,516 668,520 "/>
    </g>
    <g>
     <polygon id="44" class="fil28" points="-21,532 -21,528 667,514 667,517 "/>
    </g>
    <g>
     <polygon id="45" class="fil29" points="-21,529 -21,525 667,511 667,515 "/>
    </g>
    <g>
     <polygon id="46" class="fil30" points="-21,527 -21,523 667,509 667,513 "/>
    </g>
    <g>
     <polygon id="47" class="fil30" points="-21,524 -21,520 667,506 667,510 "/>
    </g>
    <g>
     <polygon id="48" class="fil31" points="-21,522 -21,518 667,504 667,508 "/>
    </g>
    <g>
     <polygon id="49" class="fil31" points="-21,519 -21,516 667,501 667,505 "/>
    </g>
    <g>
     <polygon id="50" class="fil32" points="-21,517 -21,513 667,499 667,503 "/>
    </g>
    <g>
     <polygon id="51" class="fil33" points="-21,514 -21,511 667,497 667,500 "/>
    </g>
    <g>
     <polygon id="52" class="fil34" points="-21,512 -21,508 667,494 667,498 "/>
    </g>
    <g>
     <polygon id="53" class="fil35" points="-21,509 -21,506 667,492 667,495 "/>
    </g>
    <g>
     <polygon id="54" class="fil36" points="-21,507 -21,503 667,489 667,493 "/>
    </g>
    <g>
     <polygon id="55" class="fil36" points="-21,504 -22,501 667,487 667,490 "/>
    </g>
    <g>
     <polygon id="56" class="fil37" points="-21,502 -22,498 667,484 667,488 "/>
    </g>
    <g>
     <polygon id="57" class="fil37" points="-22,500 -22,496 667,482 667,485 "/>
    </g>
    <g>
     <polygon id="58" class="fil38" points="-22,497 -22,493 667,479 667,483 "/>
    </g>
    <g>
     <polygon id="59" class="fil39" points="-22,495 -22,491 667,477 667,481 "/>
    </g>
    <g>
     <polygon id="60" class="fil39" points="-22,492 -22,488 667,474 667,478 "/>
    </g>
    <g>
     <polygon id="61" class="fil40" points="-22,490 -22,486 667,472 667,476 "/>
    </g>
    <g>
     <polygon id="62" class="fil41" points="-22,487 -22,484 667,469 667,473 "/>
    </g>
    <g>
     <polygon id="63" class="fil41" points="-22,485 -22,481 666,467 667,471 "/>
    </g>
    <g>
     <polygon id="64" class="fil42" points="-22,482 -22,479 666,465 666,468 "/>
    </g>
    <g>
     <polygon id="65" class="fil43" points="-22,480 -22,476 666,462 666,466 "/>
    </g>
    <g>
     <polygon id="66" class="fil43" points="-22,477 -22,474 666,460 666,463 "/>
    </g>
    <g>
     <polygon id="67" class="fil44" points="-22,475 -22,471 666,457 666,461 "/>
    </g>
    <g>
     <polygon id="68" class="fil45" points="-22,472 -22,469 666,455 666,458 "/>
    </g>
    <g>
     <polygon id="69" class="fil45" points="-22,470 -22,466 666,452 666,456 "/>
    </g>
    <g>
     <polygon id="70" class="fil46" points="-22,468 -22,464 666,450 666,453 "/>
    </g>
    <g>
     <polygon id="71" class="fil47" points="-22,465 -22,461 666,447 666,451 "/>
    </g>
    <g>
     <polygon id="72" class="fil48" points="-22,463 -22,459 666,445 666,449 "/>
    </g>
    <g>
     <polygon id="73" class="fil48" points="-22,460 -22,456 666,442 666,446 "/>
    </g>
    <g>
     <polygon id="74" class="fil49" points="-22,458 -22,454 666,440 666,444 "/>
    </g>
    <g>
     <polygon id="75" class="fil50" points="-22,455 -23,452 666,437 666,441 "/>
    </g>
    <g>
     <polygon id="76" class="fil50" points="-22,453 -23,449 666,435 666,439 "/>
    </g>
    <g>
     <polygon id="77" class="fil51" points="-23,450 -23,447 666,433 666,436 "/>
    </g>
    <g>
     <polygon id="78" class="fil52" points="-23,448 -23,444 666,430 666,434 "/>
    </g>
    <g>
     <polygon id="79" class="fil52" points="-23,445 -23,442 666,428 666,431 "/>
    </g>
    <g>
     <polygon id="80" class="fil53" points="-23,443 -23,439 666,425 666,429 "/>
    </g>
    <g>
     <polygon id="81" class="fil54" points="-23,440 -23,437 666,423 666,426 "/>
    </g>
    <g>
     <polygon id="82" class="fil54" points="-23,438 -23,434 665,420 666,424 "/>
    </g>
    <g>
     <polygon id="83" class="fil55" points="-23,435 -23,432 665,418 666,421 "/>
    </g>
    <g>
     <polygon id="84" class="fil55" points="-23,433 -23,429 665,415 665,419 "/>
    </g>
    <g>
     <polygon id="85" class="fil56" points="-23,431 -23,427 665,413 665,417 "/>
    </g>
    <g>
     <polygon id="86" class="fil56" points="-23,428 -23,424 665,410 665,414 "/>
    </g>
    <g>
     <polygon id="87" class="fil57" points="-23,426 -23,422 665,408 665,412 "/>
    </g>
    <g>
     <polygon id="88" class="fil58" points="-23,423 -23,419 665,405 665,409 "/>
    </g>
    <g>
     <polygon id="89" class="fil58" points="-23,421 -23,417 665,403 665,407 "/>
    </g>
    <g>
     <polygon id="90" class="fil59" points="-23,418 -23,415 665,401 665,404 "/>
    </g>
    <g>
     <polygon id="91" class="fil59" points="-23,416 -23,412 665,398 665,402 "/>
    </g>
    <g>
     <polygon id="92" class="fil60" points="-23,413 -23,410 665,396 665,399 "/>
    </g>
    <g>
     <polygon id="93" class="fil61" points="-23,411 -23,407 665,393 665,397 "/>
    </g>
    <g>
     <polygon id="94" class="fil62" points="-23,408 -23,405 665,391 665,394 "/>
    </g>
    <g>
     <polygon id="95" class="fil63" points="-23,406 -24,402 665,388 665,392 "/>
    </g>
    <g>
     <polygon id="96" class="fil63" points="-23,403 -24,400 665,386 665,389 "/>
    </g>
    <g>
     <polygon id="97" class="fil63" points="-24,401 -24,397 665,383 665,387 "/>
    </g>
    <g>
     <polygon id="98" class="fil64" points="-24,399 -24,395 665,381 665,385 "/>
    </g>
    <g>
     <polygon id="99" class="fil65" points="-24,396 -24,392 665,378 665,382 "/>
    </g>
    <g>
     <polygon id="100" class="fil65" points="-24,394 -24,390 665,376 665,380 "/>
    </g>
    <g>
     <polygon id="101" class="fil66" points="-24,391 -24,387 665,373 665,377 "/>
    </g>
    <g>
     <polygon id="102" class="fil66" points="-24,389 -24,385 664,371 665,375 "/>
    </g>
    <g>
     <polygon id="103" class="fil67" points="-24,386 -24,383 664,369 665,372 "/>
    </g>
    <g>
     <polygon id="104" class="fil67" points="-24,384 -24,380 664,366 664,370 "/>
    </g>
    <g>
     <polygon id="105" class="fil68" points="-24,381 -24,378 664,364 664,367 "/>
    </g>
    <g>
     <polygon id="106" class="fil68" points="-24,379 -24,375 664,361 664,365 "/>
    </g>
    <g>
     <polygon id="107" class="fil69" points="-24,376 -24,373 664,359 664,362 "/>
    </g>
    <g>
     <polygon id="108" class="fil69" points="-24,374 -24,370 664,356 664,360 "/>
    </g>
    <g>
     <polygon id="109" class="fil70" points="-24,371 -24,368 664,354 664,357 "/>
    </g>
    <g>
     <polygon id="110" class="fil71" points="-24,369 -24,365 664,351 664,355 "/>
    </g>
    <g>
     <polygon id="111" class="fil72" points="-24,367 -24,363 664,349 664,352 "/>
    </g>
    <g>
     <polygon id="112" class="fil72" points="-24,364 -24,360 664,346 664,350 "/>
    </g>
    <g>
     <polygon id="113" class="fil73" points="-24,362 -24,358 664,344 664,348 "/>
    </g>
    <g>
     <polygon id="114" class="fil73" points="-24,359 -24,355 664,341 664,345 "/>
    </g>
    <g>
     <polygon id="115" class="fil74" points="-24,357 -25,353 664,339 664,343 "/>
    </g>
    <g>
     <polygon id="116" class="fil74" points="-24,354 -25,351 664,336 664,340 "/>
    </g>
    <g>
     <polygon id="117" class="fil75" points="-25,352 -25,348 664,334 664,338 "/>
    </g>
    <g>
     <polygon id="118" class="fil75" points="-25,349 -25,346 664,332 664,335 "/>
    </g>
    <g>
     <polygon id="119" class="fil76" points="-25,347 -25,343 664,329 664,333 "/>
    </g>
    <g>
     <polygon id="120" class="fil76" points="-25,344 -25,341 664,327 664,330 "/>
    </g>
    <g>
     <polygon id="121" class="fil77" points="-25,342 -25,338 664,324 664,328 "/>
    </g>
    <g>
     <polygon id="122" class="fil77" points="-25,339 -25,336 663,322 664,325 "/>
    </g>
    <g>
     <polygon id="123" class="fil77" points="-25,337 -25,333 663,319 664,323 "/>
    </g>
    <g>
     <polygon id="124" class="fil78" points="-25,335 -25,331 663,317 663,320 "/>
    </g>
    <g>
     <polygon id="125" class="fil78" points="-25,332 -25,328 663,314 663,318 "/>
    </g>
    <g>
     <polygon id="126" class="fil79" points="-25,330 -25,326 663,312 663,316 "/>
    </g>
    <g>
     <polygon id="127" class="fil79" points="-25,327 -25,323 663,309 663,313 "/>
    </g>
    <g>
     <polygon id="128" class="fil80" points="-25,325 -25,321 663,307 663,311 "/>
    </g>
    <g>
     <polygon id="129" class="fil80" points="-25,322 -25,319 663,304 663,308 "/>
    </g>
    <g>
     <polygon id="130" class="fil81" points="-25,320 -25,316 663,302 663,306 "/>
    </g>
    <g>
     <polygon id="131" class="fil81" points="-25,317 -25,314 663,300 663,303 "/>
    </g>
    <g>
     <polygon id="132" class="fil82" points="-25,315 -25,311 663,297 663,301 "/>
    </g>
    <g>
     <polygon id="133" class="fil82" points="-25,312 -25,309 663,295 663,298 "/>
    </g>
    <g>
     <polygon id="134" class="fil82" points="-25,310 -25,306 663,292 663,296 "/>
    </g>
    <g>
     <polygon id="135" class="fil83" points="-25,307 -26,304 663,290 663,293 "/>
    </g>
    <g>
     <polygon id="136" class="fil83" points="-26,305 -26,301 663,287 663,291 "/>
    </g>
    <g>
     <polygon id="137" class="fil84" points="-26,303 -26,299 663,285 663,288 "/>
    </g>
    <g>
     <polygon id="138" class="fil84" points="-26,300 -26,296 663,282 663,286 "/>
    </g>
    <g>
     <polygon id="139" class="fil85" points="-26,298 -26,294 663,280 663,284 "/>
    </g>
    <g>
     <polygon id="140" class="fil85" points="-26,295 -26,291 663,277 663,281 "/>
    </g>
    <g>
     <polygon id="141" class="fil86" points="-26,293 -26,289 663,275 663,279 "/>
    </g>
    <g>
     <polygon id="142" class="fil86" points="-26,290 -26,287 662,272 663,276 "/>
    </g>
    <g>
     <polygon id="143" class="fil87" points="-26,288 -26,284 662,270 663,274 "/>
    </g>
    <g>
     <polygon id="144" class="fil87" points="-26,285 -26,282 662,268 662,271 "/>
    </g>
    <g>
     <polygon id="145" class="fil88" points="-26,283 -26,279 662,265 662,269 "/>
    </g>
    <g>
     <polygon id="146" class="fil89" points="-26,280 -26,277 662,263 662,266 "/>
    </g>
    <g>
     <polygon id="147" class="fil90" points="-26,278 -26,274 662,260 662,264 "/>
    </g>
    <g>
     <polygon id="148" class="fil90" points="-26,275 -26,272 662,258 662,261 "/>
    </g>
    <g>
     <polygon id="149" class="fil91" points="-26,273 -26,269 662,255 662,259 "/>
    </g>
    <g>
     <polygon id="150" class="fil91" points="-26,271 -26,267 662,253 662,256 "/>
    </g>
    <g>
     <polygon id="151" class="fil92" points="-26,268 -26,264 662,250 662,254 "/>
    </g>
    <g>
     <polygon id="152" class="fil92" points="-26,266 -26,262 662,248 662,252 "/>
    </g>
    <g>
     <polygon id="153" class="fil93" points="-26,263 -26,259 662,245 662,249 "/>
    </g>
    <g>
     <polygon id="154" class="fil93" points="-26,261 -26,257 662,243 662,247 "/>
    </g>
    <g>
     <polygon id="155" class="fil94" points="-26,258 -27,254 662,240 662,244 "/>
    </g>
    <g>
     <polygon id="156" class="fil94" points="-27,256 -27,252 662,238 662,242 "/>
    </g>
    <g>
     <polygon id="157" class="fil95" points="-27,253 -27,250 662,236 662,239 "/>
    </g>
    <g>
     <polygon id="158" class="fil96" points="-27,251 -27,247 662,233 662,237 "/>
    </g>
    <g>
     <polygon id="159" class="fil96" points="-27,248 -27,245 662,231 662,234 "/>
    </g>
    <g>
     <polygon id="160" class="fil96" points="-27,246 -27,242 662,228 662,232 "/>
    </g>
    <g>
     <polygon id="161" class="fil97" points="-27,243 -27,240 662,226 662,229 "/>
    </g>
    <g>
     <polygon id="162" class="fil98" points="-27,241 -27,237 661,223 662,227 "/>
    </g>
    <g>
     <polygon id="163" class="fil99" points="-27,238 -27,235 661,221 662,224 "/>
    </g>
    <g>
     <polygon id="164" class="fil100" points="-27,236 -27,232 661,218 661,222 "/>
    </g>
    <g>
     <polygon id="165" class="fil100" points="-27,234 -27,230 661,216 661,220 "/>
    </g>
    <g>
     <polygon id="166" class="fil101" points="-27,231 -27,227 661,213 661,217 "/>
    </g>
    <g>
     <polygon id="167" class="fil101" points="-27,229 -27,225 661,211 661,215 "/>
    </g>
    <g>
     <polygon id="168" class="fil102" points="-27,226 -27,222 661,208 661,212 "/>
    </g>
    <g>
     <polygon id="169" class="fil103" points="-27,224 -27,220 661,206 661,210 "/>
    </g>
    <g>
     <polygon id="170" class="fil103" points="-27,221 -27,218 661,204 661,207 "/>
    </g>
    <g>
     <polygon id="171" class="fil104" points="-27,219 -27,215 661,201 661,205 "/>
    </g>
    <g>
     <polygon id="172" class="fil104" points="-27,216 -27,213 661,199 661,202 "/>
    </g>
    <g>
     <polygon id="173" class="fil105" points="-27,214 -27,210 661,196 661,200 "/>
    </g>
    <g>
     <polygon id="174" class="fil105" points="-27,211 -27,208 661,194 661,197 "/>
    </g>
    <g>
     <polygon id="175" class="fil106" points="-27,209 -28,205 661,191 661,195 "/>
    </g>
    <g>
     <polygon id="176" class="fil107" points="-28,206 -28,203 661,189 661,192 "/>
    </g>
    <g>
     <polygon id="177" class="fil107" points="-28,204 -28,200 661,186 661,190 "/>
    </g>
    <g>
     <polygon id="178" class="fil108" points="-28,202 -28,198 661,184 661,188 "/>
    </g>
    <g>
     <polygon id="179" class="fil109" points="-28,199 -28,195 661,181 661,185 "/>
    </g>
    <g>
     <polygon id="180" class="fil109" points="-28,197 -28,193 661,179 661,183 "/>
    </g>
    <g>
     <polygon id="181" class="fil110" points="-28,194 -28,190 661,176 661,180 "/>
    </g>
    <g>
     <polygon id="182" class="fil111" points="-28,192 -28,188 660,174 661,178 "/>
    </g>
    <g>
     <polygon id="183" class="fil111" points="-28,189 -28,186 660,171 660,175 "/>
    </g>
    <g>
     <polygon id="184" class="fil112" points="-28,187 -28,183 660,169 660,173 "/>
    </g>
    <g>
     <polygon id="185" class="fil113" points="-28,184 -28,181 660,167 660,170 "/>
    </g>
    <g>
     <polygon id="186" class="fil114" points="-28,182 -28,178 660,164 660,168 "/>
    </g>
    <g>
     <polygon id="187" class="fil114" points="-28,179 -28,176 660,162 660,165 "/>
    </g>
    <g>
     <polygon id="188" class="fil115" points="-28,177 -28,173 660,159 660,163 "/>
    </g>
    <g>
     <polygon id="189" class="fil116" points="-28,174 -28,171 660,157 660,160 "/>
    </g>
    <g>
     <polygon id="190" class="fil116" points="-28,172 -28,168 660,154 660,158 "/>
    </g>
    <g>
     <polygon id="191" class="fil117" points="-28,170 -28,166 660,152 660,155 "/>
    </g>
    <g>
     <polygon id="192" class="fil118" points="-28,167 -28,163 660,149 660,153 "/>
    </g>
    <g>
     <polygon id="193" class="fil118" points="-28,165 -28,161 660,147 660,151 "/>
    </g>
    <g>
     <polygon id="194" class="fil119" points="-28,162 -28,158 660,144 660,148 "/>
    </g>
    <g>
     <polygon id="195" class="fil120" points="-28,160 -29,156 660,142 660,146 "/>
    </g>
    <g>
     <polygon id="196" class="fil120" points="-29,157 -29,154 660,139 660,143 "/>
    </g>
    <g>
     <polygon id="197" class="fil121" points="-29,155 -29,151 660,137 660,141 "/>
    </g>
    <g>
     <polygon id="198" class="fil122" points="-29,152 -29,149 660,135 660,138 "/>
    </g>
    <g>
     <polygon id="199" class="fil122" points="-29,150 -29,146 660,132 660,136 "/>
    </g>
    <g>
     <polygon id="200" class="fil123" points="-29,147 -29,144 660,130 660,133 "/>
    </g>
    <g>
     <polygon id="201" class="fil123" points="-29,145 -29,141 660,127 660,131 "/>
    </g>
    <g>
     <polygon id="202" class="fil124" points="-29,142 -29,139 659,125 660,128 "/>
    </g>
    <g>
     <polygon id="203" class="fil125" points="-29,140 -29,136 659,122 659,126 "/>
    </g>
    <g>
     <polygon id="204" class="fil126" points="-29,138 -29,134 659,120 659,123 "/>
    </g>
    <g>
     <polygon id="205" class="fil127" points="-29,135 -29,131 659,117 659,121 "/>
    </g>
    <g>
     <polygon id="206" class="fil128" points="-29,133 -29,129 659,115 659,119 "/>
    </g>
    <g>
     <polygon id="207" class="fil128" points="-29,130 -29,126 659,112 659,116 "/>
    </g>
    <g>
     <polygon id="208" class="fil129" points="-29,128 -29,124 659,110 659,114 "/>
    </g>
    <g>
     <polygon id="209" class="fil129" points="-29,125 -29,122 659,107 659,111 "/>
    </g>
    <g>
     <polygon id="210" class="fil130" points="-29,123 -29,119 659,105 659,109 "/>
    </g>
    <g>
     <polygon id="211" class="fil131" points="-29,120 -29,117 659,103 659,106 "/>
    </g>
    <g>
     <polygon id="212" class="fil131" points="-29,118 -29,114 659,100 659,104 "/>
    </g>
    <g>
     <polygon id="213" class="fil132" points="-29,115 -29,112 659,98 659,101 "/>
    </g>
    <g>
     <polygon id="214" class="fil133" points="-29,113 -29,109 659,95 659,99 "/>
    </g>
    <g>
     <polygon id="215" class="fil133" points="-29,110 -30,107 659,93 659,96 "/>
    </g>
    <g>
     <polygon id="216" class="fil134" points="-30,108 -30,104 659,90 659,94 "/>
    </g>
    <g>
     <polygon id="217" class="fil134" points="-30,106 -30,102 659,88 659,91 "/>
    </g>
    <g>
     <polygon id="218" class="fil135" points="-30,103 -30,99 659,85 659,89 "/>
    </g>
    <g>
     <polygon id="219" class="fil136" points="-30,101 -30,97 659,83 659,87 "/>
    </g>
    <g>
     <polygon id="220" class="fil136" points="-30,98 -30,94 659,80 659,84 "/>
    </g>
    <g>
     <polygon id="221" class="fil137" points="-30,96 -30,92 659,78 659,82 "/>
    </g>
    <g>
     <polygon id="222" class="fil137" points="-30,93 -30,90 658,75 659,79 "/>
    </g>
    <g>
     <polygon id="223" class="fil138" points="-30,91 -30,87 658,73 658,77 "/>
    </g>
    <g>
     <polygon id="224" class="fil138" points="-30,88 -30,85 658,71 658,74 "/>
    </g>
    <g>
     <polygon id="225" class="fil139" points="-30,86 -30,82 658,68 658,72 "/>
    </g>
    <g>
     <polygon id="226" class="fil140" points="-30,83 -30,80 658,66 658,69 "/>
    </g>
    <g>
     <polygon id="227" class="fil140" points="-30,81 -30,77 658,63 658,67 "/>
    </g>
    <g>
     <polygon id="228" class="fil141" points="-30,78 -30,75 658,61 658,64 "/>
    </g>
    <g>
     <polygon id="229" class="fil141" points="-30,76 -30,72 658,58 658,62 "/>
    </g>
    <g>
     <polygon id="230" class="fil142" points="-30,74 -30,70 658,56 658,59 "/>
    </g>
    <g>
     <polygon id="231" class="fil143" points="-30,71 -30,67 658,53 658,57 "/>
    </g>
    <g>
     <polygon id="232" class="fil144" points="-30,69 -30,65 658,51 658,55 "/>
    </g>
    <g>
     <polygon id="233" class="fil145" points="-30,66 -30,62 658,48 658,52 "/>
    </g>
    <g>
     <polygon id="234" class="fil146" points="-30,64 -31,60 658,46 658,50 "/>
    </g>
    <g>
     <polygon id="235" class="fil147" points="-30,61 -31,57 658,43 658,47 "/>
    </g>
    <g>
     <polygon id="236" class="fil148" points="-31,59 -31,55 658,41 658,45 "/>
    </g>
    <g>
     <polygon id="237" class="fil149" points="-31,56 -31,53 658,39 658,42 "/>
    </g>
    <g>
     <polygon id="238" class="fil149" points="-31,54 -31,50 658,36 658,40 "/>
    </g>
    <g>
     <polygon id="239" class="fil150" points="-31,51 -31,48 658,34 658,37 "/>
    </g>
    <g>
     <polygon id="240" class="fil150" points="-31,49 -31,45 658,31 658,35 "/>
    </g>
    <g>
     <polygon id="241" class="fil151" points="-31,46 -31,43 658,29 658,32 "/>
    </g>
    <g>
     <polygon id="242" class="fil151" points="-31,44 -31,40 657,26 658,30 "/>
    </g>
    <g>
     <polygon id="243" class="fil152" points="-31,41 -31,38 657,24 657,27 "/>
    </g>
    <g>
     <polygon id="244" class="fil152" points="-31,39 -31,35 657,21 657,25 "/>
    </g>
    <g>
     <polygon id="245" class="fil153" points="-31,37 -31,33 657,19 657,23 "/>
    </g>
    <g>
     <polygon id="246" class="fil153" points="-31,34 -31,30 657,16 657,20 "/>
    </g>
    <g>
     <polygon id="247" class="fil154" points="-31,32 -31,28 657,14 657,18 "/>
    </g>
    <g>
     <polygon id="248" class="fil154" points="-31,29 -31,25 657,11 657,15 "/>
    </g>
    <g>
     <polygon id="249" class="fil155" points="-31,27 -31,23 657,9 657,13 "/>
    </g>
    <g>
     <polygon id="250" class="fil155" points="-31,24 -31,21 657,7 657,10 "/>
    </g>
    <g>
     <polygon id="251" class="fil156" points="-31,22 -31,18 657,4 657,8 "/>
    </g>
    <g>
     <polygon id="252" class="fil156" points="-31,19 -31,16 657,2 657,5 "/>
    </g>
    <g>
     <polygon id="253" class="fil157" points="-31,17 -31,13 657,-1 657,3 "/>
    </g>
    <g>
     <polygon id="254" class="fil157" points="-31,14 -32,11 657,-3 657,0 "/>
    </g>
    <g>
     <polygon id="255" class="fil158" points="-31,12 -32,-19 656,-33 657,-2 "/>
    </g>
   </g>
  </g>
 </g>
</svg>
